<?xml version="1.0" standalone="no"?><!DOCTYPE svg PUBLIC "-//W3C//DTD SVG 1.1//EN" "http://www.w3.org/Graphics/SVG/1.1/DTD/svg11.dtd"><svg class="icon" height="512" viewBox="0 0 1024 1024" version="1.1" xmlns="http://www.w3.org/2000/svg"><path d="M938.666667 981.333333a21.333333 21.333333 0 0 1-42.666667 0h-1.066667a383.488 383.488 0 0 0-765.866666 0h-42.666667a425.92 425.92 0 0 1 850.325333-8.746666A21.333333 21.333333 0 0 1 938.666667 981.333333zM128 1002.666667a21.333333 21.333333 0 1 1-21.333333-21.333334 21.333333 21.333333 0 0 1 21.333333 21.333334z m384-448a277.333333 277.333333 0 1 1 277.333333-277.333334 277.333333 277.333333 0 0 1-277.333333 277.333334z m0-512a234.666667 234.666667 0 1 0 234.666667 234.666666A234.666667 234.666667 0 0 0 512 42.666667z" /></svg>