<?xml version="1.0" encoding="utf-8"?>
<!-- Generator: Adobe Illustrator 16.0.0, SVG Export Plug-In . SVG Version: 6.00 Build 0)  -->
<!DOCTYPE svg PUBLIC "-//W3C//DTD SVG 1.1//EN" "http://www.w3.org/Graphics/SVG/1.1/DTD/svg11.dtd">
<svg version="1.1" id="Layer_1" xmlns="http://www.w3.org/2000/svg" xmlns:xlink="http://www.w3.org/1999/xlink" x="0px" y="0px"
	 width="200px" height="320px" viewBox="0 0 200 320" enable-background="new 0 0 200 320" xml:space="preserve">
<rect x="6" y="5" fill="#FFFFFF" stroke="#000000" stroke-miterlimit="10" width="188" height="307"/>
<ellipse fill="#B7B7B7" stroke="#000000" stroke-miterlimit="10" cx="38.5" cy="37.5" rx="18.5" ry="19.5"/>
<rect x="72" y="23" fill="none" width="118" height="29"/>
<text transform="matrix(1 0 0 1 72 35.7798)"><tspan x="0" y="0" font-family="'MyriadPro-Regular'" font-size="18">Lorem Ipsum</tspan><tspan x="0" y="14.4" font-family="'MyriadPro-Regular'" font-size="12">http://youtube.com</tspan></text>
<polygon fill="#F5ED61" stroke="#000000" stroke-miterlimit="10" points="164.248,82.628 156.845,78.742 149.447,82.637 
	150.855,74.396 144.865,68.563 153.139,67.356 156.833,59.856 160.539,67.352 168.813,68.549 162.829,74.389 "/>
<text transform="matrix(1 0 0 1 151 76.6401)" font-family="'MyriadPro-Regular'" font-size="12">51</text>
<line fill="none" stroke="#000000" stroke-miterlimit="10" x1="133.543" y1="66.007" x2="131" y2="70.006"/>
<line fill="none" stroke="#000000" stroke-miterlimit="10" x1="133.664" y1="66.007" x2="136.524" y2="70.006"/>
<line fill="none" stroke="#000000" stroke-miterlimit="10" x1="133.611" y1="78.784" x2="130.954" y2="74.217"/>
<line fill="none" stroke="#000000" stroke-miterlimit="10" x1="133.737" y1="78.784" x2="136.727" y2="74.217"/>
<ellipse fill="#B7B7B7" stroke="#000000" stroke-miterlimit="10" cx="35.25" cy="141" rx="18.5" ry="19.5"/>
<rect x="68.75" y="126.5" fill="none" width="118" height="29"/>
<text transform="matrix(1 0 0 1 68.75 139.2798)"><tspan x="0" y="0" font-family="'MyriadPro-Regular'" font-size="18">Lorem Ipsum</tspan><tspan x="0" y="14.4" font-family="'MyriadPro-Regular'" font-size="12">http://youtube.com</tspan></text>
<polygon fill="#F5ED61" stroke="#000000" stroke-miterlimit="10" points="160.998,186.129 153.595,182.242 146.197,186.137 
	147.605,177.896 141.615,172.063 149.889,170.855 153.583,163.356 157.289,170.852 165.563,172.049 159.579,177.889 "/>
<text transform="matrix(1 0 0 1 147.75 180.1406)" font-family="'MyriadPro-Regular'" font-size="12">23</text>
<line fill="none" stroke="#000000" stroke-miterlimit="10" x1="130.293" y1="169.508" x2="127.75" y2="173.506"/>
<line fill="none" stroke="#000000" stroke-miterlimit="10" x1="130.414" y1="169.508" x2="133.274" y2="173.506"/>
<line fill="none" stroke="#000000" stroke-miterlimit="10" x1="130.361" y1="182.284" x2="127.704" y2="177.717"/>
<line fill="none" stroke="#000000" stroke-miterlimit="10" x1="130.487" y1="182.284" x2="133.477" y2="177.717"/>
</svg>
