<?xml version="1.0" encoding="utf-8"?>
<!-- Generator: Adobe Illustrator 16.0.0, SVG Export Plug-In . SVG Version: 6.00 Build 0)  -->
<!DOCTYPE svg PUBLIC "-//W3C//DTD SVG 1.1//EN" "http://www.w3.org/Graphics/SVG/1.1/DTD/svg11.dtd">
<svg version="1.1" id="Layer_1" xmlns="http://www.w3.org/2000/svg" xmlns:xlink="http://www.w3.org/1999/xlink" x="0px" y="0px"
	 width="189px" height="257px" viewBox="0 0 189 257" enable-background="new 0 0 189 257" xml:space="preserve">
<rect x="0.5" y="0.5" fill="#FFFFFF" stroke="#000000" stroke-miterlimit="10" width="188" height="256"/>
<ellipse fill="#B7B7B7" stroke="#000000" stroke-miterlimit="10" cx="33" cy="33" rx="18.5" ry="19.5"/>
<rect x="66.5" y="18.5" fill="none" width="118" height="29"/>
<text transform="matrix(1 0 0 1 66.5 31.2798)"><tspan x="0" y="0" font-family="'MyriadPro-Regular'" font-size="18">Lorem Ipsum</tspan><tspan x="0" y="14.4" font-family="'MyriadPro-Regular'" font-size="12">http://youtube.com</tspan></text>
<polygon fill="#F5ED61" stroke="#000000" stroke-miterlimit="10" points="158.748,78.128 151.345,74.242 143.947,78.137 
	145.355,69.896 139.365,64.063 147.639,62.856 151.333,55.356 155.039,62.852 163.313,64.049 157.329,69.889 "/>
<text transform="matrix(1 0 0 1 145.5 72.1401)" font-family="'MyriadPro-Regular'" font-size="12">51</text>
<line fill="none" stroke="#000000" stroke-miterlimit="10" x1="128.043" y1="61.507" x2="125.5" y2="65.506"/>
<line fill="none" stroke="#000000" stroke-miterlimit="10" x1="128.164" y1="61.507" x2="131.024" y2="65.506"/>
<line fill="none" stroke="#000000" stroke-miterlimit="10" x1="128.111" y1="74.284" x2="125.454" y2="69.717"/>
<line fill="none" stroke="#000000" stroke-miterlimit="10" x1="128.237" y1="74.284" x2="131.227" y2="69.717"/>
<ellipse fill="#B7B7B7" stroke="#000000" stroke-miterlimit="10" cx="29.75" cy="136.5" rx="18.5" ry="19.5"/>
<rect x="63.25" y="122" fill="none" width="118" height="29"/>
<text transform="matrix(1 0 0 1 63.25 134.7798)"><tspan x="0" y="0" font-family="'MyriadPro-Regular'" font-size="18">Lorem Ipsum</tspan><tspan x="0" y="14.4" font-family="'MyriadPro-Regular'" font-size="12">http://youtube.com</tspan></text>
<polygon fill="#F5ED61" stroke="#000000" stroke-miterlimit="10" points="155.498,181.629 148.095,177.742 140.697,181.637 
	142.105,173.396 136.115,167.563 144.389,166.355 148.083,158.856 151.789,166.352 160.063,167.549 154.079,173.389 "/>
<text transform="matrix(1 0 0 1 142.25 175.6406)" font-family="'MyriadPro-Regular'" font-size="12">23</text>
<line fill="none" stroke="#000000" stroke-miterlimit="10" x1="124.793" y1="165.008" x2="122.25" y2="169.006"/>
<line fill="none" stroke="#000000" stroke-miterlimit="10" x1="124.914" y1="165.008" x2="127.774" y2="169.006"/>
<line fill="none" stroke="#000000" stroke-miterlimit="10" x1="124.861" y1="177.784" x2="122.204" y2="173.217"/>
<line fill="none" stroke="#000000" stroke-miterlimit="10" x1="124.987" y1="177.784" x2="127.977" y2="173.217"/>
</svg>
