<?xml version="1.0" standalone="no"?><!DOCTYPE svg PUBLIC "-//W3C//DTD SVG 1.1//EN" "http://www.w3.org/Graphics/SVG/1.1/DTD/svg11.dtd"><svg class="icon" height="512" viewBox="0 0 1024 1024" version="1.1" xmlns="http://www.w3.org/2000/svg"><path d="M588.376954 313.511389c-30.870925-13.491737-12.119696-247.653417-16.23582-313.511389H222.49933a91.469406 91.469406 0 0 0-91.469406 91.469406v841.061188a91.469406 91.469406 0 0 0 91.469406 91.469406h579.00134a91.469406 91.469406 0 0 0 91.469406-91.469406V329.289862c-4.116123-13.491737-273.722197 2.972756-304.593122-15.778473zM293.845467 424.875391H725.581063a38.645824 38.645824 0 0 1 38.645824 38.645824c0 21.266637-17.379187 30.870925-38.645824 30.870924H293.845467c-21.266637 0-38.645824-9.604288-38.645824-30.870924a38.645824 38.645824 0 0 1 38.645824-38.645824z m237.134435 363.133542H292.244752a41.389906 41.389906 0 0 1-41.389906-41.389907c0-22.867351 18.522555-33.84368 41.389906-33.84368h238.73515c22.867351 0 41.389906 10.976329 41.389906 33.84368a41.389906 41.389906 0 0 1-41.389906 41.389907z m195.744529-141.548906H293.845467a41.389906 41.389906 0 0 1-41.61858-41.389906c0-22.867351 18.522555-33.84368 41.389906-33.843681h433.107638c22.867351 0 41.389906 10.976329 41.389906 33.843681a41.389906 41.389906 0 0 1-41.389906 41.389906z m164.416257-359.474766L617.41849 0v269.377401l26.526128 19.437248z" /></svg>